<?xml version="1.0" encoding="utf-8"?>
<!-- Generator: Adobe Illustrator 19.2.0, SVG Export Plug-In . SVG Version: 6.00 Build 0)  -->
<svg version="1.1" id="Слой_1" xmlns="http://www.w3.org/2000/svg" xmlns:xlink="http://www.w3.org/1999/xlink" x="0px" y="0px"
	 viewBox="0 0 59.5 59.5" style="enable-background:new 0 0 59.5 59.5;" xml:space="preserve">
<style type="text/css">
	.st0{fill:#2AB27B;}
</style>
<title>demo</title>
<g>
	<g>
		<path class="st0" d="M54.4,7.4L4.4,26l16.1,12v7.9c0,0.2,0.1,0.4,0.2,0.5c0,0.1,0,0.1,0.1,0.2c0.2,0.3,0.5,0.5,0.9,0.5
			c0.2,0,0.4,0,0.5-0.1l5.7-3.5L41,53.4L54.4,7.4z M48.9,11.6L22,36.6l-13.4-10L48.9,11.6z M22.5,44.4v-4.8l3.5,2.7L22.5,44.4z
			 M23.6,37.9l27.2-25.3L39.9,50.1L23.6,37.9z"/>
	</g>
</g>
</svg>
